<mxfile host="65bd71144e">
    <diagram id="iCZ0kzWzgeeD0Zi7YMyX" name="Страница 1">
        <mxGraphModel dx="639" dy="2475" grid="1" gridSize="10" guides="1" tooltips="1" connect="1" arrows="1" fold="1" page="1" pageScale="1" pageWidth="2000" pageHeight="2000" math="0" shadow="0">
            <root>
                <mxCell id="0"/>
                <mxCell id="1" parent="0"/>
                <mxCell id="2" value="Start" style="ellipse;whiteSpace=wrap;html=1;" vertex="1" parent="1">
                    <mxGeometry x="80" y="-650" width="40" height="20" as="geometry"/>
                </mxCell>
                <mxCell id="3" value="Interface" style="rounded=1;whiteSpace=wrap;html=1;" vertex="1" parent="1">
                    <mxGeometry x="263" y="-610" width="57" height="20" as="geometry"/>
                </mxCell>
                <mxCell id="4" value="MenuUI" style="rounded=1;whiteSpace=wrap;html=1;" vertex="1" parent="1">
                    <mxGeometry x="150" y="-550" width="50" height="20" as="geometry"/>
                </mxCell>
                <mxCell id="5" value="GameUI" style="rounded=1;whiteSpace=wrap;html=1;" vertex="1" parent="1">
                    <mxGeometry x="266.5" y="-550" width="50" height="20" as="geometry"/>
                </mxCell>
                <mxCell id="6" value="BarGUI" style="rounded=1;whiteSpace=wrap;html=1;" vertex="1" parent="1">
                    <mxGeometry x="261.5" y="-510" width="57" height="20" as="geometry"/>
                </mxCell>
                <mxCell id="7" value="Console" style="rounded=1;whiteSpace=wrap;html=1;" vertex="1" parent="1">
                    <mxGeometry x="261.5" y="-480" width="57" height="20" as="geometry"/>
                </mxCell>
                <mxCell id="8" value="Context" style="rounded=1;whiteSpace=wrap;html=1;" vertex="1" parent="1">
                    <mxGeometry x="261.5" y="-450" width="57.5" height="20" as="geometry"/>
                </mxCell>
                <mxCell id="9" value="Info" style="rounded=1;whiteSpace=wrap;html=1;" vertex="1" parent="1">
                    <mxGeometry x="261.5" y="-420" width="57" height="20" as="geometry"/>
                </mxCell>
                <mxCell id="10" value="inventory" style="rounded=1;whiteSpace=wrap;html=1;" vertex="1" parent="1">
                    <mxGeometry x="261.5" y="-390" width="58.25" height="20" as="geometry"/>
                </mxCell>
                <mxCell id="11" value="Select" style="rounded=1;whiteSpace=wrap;html=1;" vertex="1" parent="1">
                    <mxGeometry x="261.5" y="-360" width="60" height="20" as="geometry"/>
                </mxCell>
                <mxCell id="12" value="" style="endArrow=none;html=1;entryX=0.5;entryY=1;entryDx=0;entryDy=0;exitX=0;exitY=0.5;exitDx=0;exitDy=0;" edge="1" parent="1" source="6" target="5">
                    <mxGeometry width="50" height="50" relative="1" as="geometry">
                        <mxPoint x="210" y="-470" as="sourcePoint"/>
                        <mxPoint x="260" y="-520" as="targetPoint"/>
                        <Array as="points">
                            <mxPoint x="250" y="-500"/>
                            <mxPoint x="250" y="-520"/>
                            <mxPoint x="290" y="-520"/>
                        </Array>
                    </mxGeometry>
                </mxCell>
                <mxCell id="13" value="" style="endArrow=none;html=1;entryX=0.5;entryY=1;entryDx=0;entryDy=0;exitX=-0.001;exitY=0.574;exitDx=0;exitDy=0;exitPerimeter=0;" edge="1" parent="1" source="7" target="5">
                    <mxGeometry width="50" height="50" relative="1" as="geometry">
                        <mxPoint x="250" y="-460" as="sourcePoint"/>
                        <mxPoint x="300" y="-510" as="targetPoint"/>
                        <Array as="points">
                            <mxPoint x="250" y="-470"/>
                            <mxPoint x="250" y="-520"/>
                            <mxPoint x="290" y="-520"/>
                        </Array>
                    </mxGeometry>
                </mxCell>
                <mxCell id="14" value="" style="endArrow=none;html=1;exitX=0;exitY=0.5;exitDx=0;exitDy=0;entryX=0.5;entryY=1;entryDx=0;entryDy=0;" edge="1" parent="1" source="8" target="5">
                    <mxGeometry width="50" height="50" relative="1" as="geometry">
                        <mxPoint x="261.443" y="-469.25999999999976" as="sourcePoint"/>
                        <mxPoint x="290" y="-531" as="targetPoint"/>
                        <Array as="points">
                            <mxPoint x="250" y="-440"/>
                            <mxPoint x="250" y="-520.74"/>
                            <mxPoint x="290" y="-520.74"/>
                        </Array>
                    </mxGeometry>
                </mxCell>
                <mxCell id="15" value="" style="endArrow=none;html=1;entryX=0.5;entryY=1;entryDx=0;entryDy=0;exitX=0;exitY=0.5;exitDx=0;exitDy=0;" edge="1" parent="1" source="9" target="5">
                    <mxGeometry width="50" height="50" relative="1" as="geometry">
                        <mxPoint x="190" y="-430" as="sourcePoint"/>
                        <mxPoint x="240" y="-520" as="targetPoint"/>
                        <Array as="points">
                            <mxPoint x="250" y="-410"/>
                            <mxPoint x="250" y="-520"/>
                            <mxPoint x="290" y="-520"/>
                        </Array>
                    </mxGeometry>
                </mxCell>
                <mxCell id="16" value="" style="endArrow=none;html=1;entryX=0.5;entryY=1;entryDx=0;entryDy=0;exitX=0;exitY=0.5;exitDx=0;exitDy=0;" edge="1" parent="1" source="10" target="5">
                    <mxGeometry width="50" height="50" relative="1" as="geometry">
                        <mxPoint x="180" y="-400" as="sourcePoint"/>
                        <mxPoint x="230" y="-450" as="targetPoint"/>
                        <Array as="points">
                            <mxPoint x="250" y="-380"/>
                            <mxPoint x="250" y="-520"/>
                            <mxPoint x="290" y="-520"/>
                        </Array>
                    </mxGeometry>
                </mxCell>
                <mxCell id="17" value="" style="endArrow=none;html=1;entryX=0.5;entryY=1;entryDx=0;entryDy=0;exitX=0;exitY=0.5;exitDx=0;exitDy=0;" edge="1" parent="1" source="11" target="5">
                    <mxGeometry width="50" height="50" relative="1" as="geometry">
                        <mxPoint x="120" y="-355" as="sourcePoint"/>
                        <mxPoint x="170" y="-405" as="targetPoint"/>
                        <Array as="points">
                            <mxPoint x="250" y="-350"/>
                            <mxPoint x="250" y="-520"/>
                            <mxPoint x="290" y="-520"/>
                        </Array>
                    </mxGeometry>
                </mxCell>
                <mxCell id="18" value="" style="endArrow=none;html=1;exitX=0.5;exitY=0;exitDx=0;exitDy=0;entryX=0.5;entryY=1;entryDx=0;entryDy=0;" edge="1" parent="1" source="5" target="3">
                    <mxGeometry width="50" height="50" relative="1" as="geometry">
                        <mxPoint x="380" y="-530" as="sourcePoint"/>
                        <mxPoint x="430" y="-580" as="targetPoint"/>
                    </mxGeometry>
                </mxCell>
            </root>
        </mxGraphModel>
    </diagram>
</mxfile>